<svg width="583.866599px" height="899px" viewBox="0 0 583.866599 899" version="1.1" xmlns="http://www.w3.org/2000/svg" xmlns:xlink="http://www.w3.org/1999/xlink">
    <g id="Page-1" stroke="none" stroke-width="1" fill="none" fill-rule="evenodd">
        <g id="elixir_logo" transform="translate(-0.000000, 0.000000)">
            <path d="M317.754173,0 C251.564032,23.4868241 189.644223,91.8121306 127.724414,202.840754 C35.9122838,371.518854 -81.5218367,610.657427 80.7507662,800.687186 C155.48157,888.228984 281.456354,939.472964 443.728957,858.336663 C573.974072,792.146522 612.407057,602.116764 563.298243,514.574965 C465.080615,330.950703 366.862987,286.112221 341.240997,172.948432 C324.159671,96.0824623 315.619007,38.4329849 317.754173,0 Z" id="Path" stroke="#26053D" fill="#26053D"></path>
            <path d="M286.057035,751.852428 C278.546495,749.600115 270.821201,754.437051 268.622899,762.68395 L268.525283,763.068386 L249.078314,843.243804 L248.99046,843.630411 C247.159192,851.988081 251.649507,860.493443 259.160048,862.745757 C266.668635,865.002414 274.39393,860.165478 276.592232,851.916406 L276.689847,851.534143 L296.134864,771.358725 L296.224671,770.969945 C296.357428,770.368315 296.456996,769.76234 296.525327,769.158538 L296.581944,768.554735 L296.121198,765.957081 L295.447651,762.216981 L295.022047,759.882133 C294.110318,757.925205 292.843268,756.200675 291.29899,754.817142 C289.756665,753.435781 287.9703,752.425823 286.057035,751.852428 Z M144.592033,674.3 C144.219976,675.015884 143.904261,675.77132 143.653286,676.560374 L143.511716,677.036971 L123.104096,750.037371 L123.010263,750.391358 C121.089538,758.001087 125.80151,765.743314 133.682319,767.796042 C141.562104,769.848771 149.670121,765.446677 151.977244,757.935827 L152.078044,757.585795 L170.581944,691.394204 C160.890634,686.440366 152.19216,680.725158 144.592033,674.3 Z M81.0166462,590.8535 C73.5147542,588.598977 65.7969734,593.433821 63.6018114,601.68303 L63.5046907,602.067472 L44.0787942,682.244223 L43.9896693,682.630837 C42.1613428,690.988646 46.6464472,699.491977 54.1483392,701.7465 C61.6490611,704.001023 69.3668419,699.166179 71.562979,690.91697 L71.6591246,690.532528 L91.0850212,610.355777 L91.174146,609.969163 C93.0024726,601.611354 88.5185383,593.108023 81.0166462,590.8535 Z M556.017826,575.8535 C548.515385,573.598977 540.79647,578.433821 538.602489,586.68303 L538.504979,587.067472 L519.07898,667.244223 L518.98927,667.630837 C517.161928,675.988646 521.647401,684.491977 529.147892,686.7465 C536.650333,689.001023 544.367297,684.166179 546.563229,675.91697 L546.658789,675.532528 L566.084788,595.355777 L566.174497,594.969163 C568.00184,586.611354 563.518317,578.108023 556.017826,575.8535 Z M508.015994,471.853673 C500.515502,469.598517 492.796586,474.434624 490.600654,482.683765 L490.505094,483.0669 L471.079093,563.243637 L470.989383,563.630248 C469.16204,571.987987 473.645564,580.493419 481.148006,582.745752 C488.648498,585.002428 496.367414,580.165452 498.563345,571.916312 L498.658906,571.534045 L518.084907,491.356874 L518.174617,490.970046 C520.00196,482.611221 515.516486,474.107526 508.015994,471.853673 Z" id="Shape" fill="#FFFFFF" fill-rule="nonzero"></path>
            <path d="M136.015727,365.853671 C128.514994,363.598519 120.797006,368.434619 118.600866,376.683963 L118.50472,377.066881 L99.0787949,457.243057 L98.9896699,457.629884 C97.1613407,465.988479 101.646452,474.492161 109.148355,476.746662 C116.649088,479.001163 124.36688,474.164194 126.563216,465.915935 L126.659166,465.533018 L146.085092,385.356841 L146.174216,384.970014 C148.002546,376.61142 143.517435,368.10752 136.015727,365.853671 Z M169.015727,211.853671 C161.514994,209.598519 153.797006,214.434619 151.600866,222.683963 L151.50472,223.066881 L132.078795,303.243057 L131.98967,303.629884 C130.161341,311.988479 134.646452,320.492161 142.148355,322.746662 C149.649088,325.001163 157.36688,320.164194 159.563216,311.915935 L159.659166,311.533018 L179.085092,231.356841 L179.174216,230.970014 C181.002546,222.61142 176.517435,214.10752 169.015727,211.853671 Z M284.015727,113.853671 C276.514994,111.598519 268.797006,116.434619 266.600866,124.683963 L266.50472,125.066881 L247.078795,205.243057 L246.98967,205.629884 C245.161341,213.988479 249.646452,222.492161 257.148355,224.746662 C264.649088,227.001163 272.36688,222.164194 274.563216,213.915935 L274.659166,213.533018 L294.085092,133.356841 L294.174216,132.970014 C296.002546,124.61142 291.517435,116.10752 284.015727,113.853671 Z M248.015727,310.853671 C240.514994,308.598519 232.797006,313.434619 230.600866,321.683963 L230.50472,322.066881 L211.078795,402.243057 L210.98967,402.629884 C209.161341,410.988479 213.646452,419.492161 221.148355,421.746662 C228.649088,424.001163 236.36688,419.164194 238.563216,410.915935 L238.659166,410.533018 L258.085092,330.356841 L258.174216,329.970014 C260.002546,321.61142 255.517435,313.10752 248.015727,310.853671 Z M347.015727,259.853671 C339.514994,257.598519 331.797006,262.434619 329.600866,270.683963 L329.50472,271.066881 L310.078795,351.243057 L309.98967,351.629884 C308.161341,359.988479 312.646452,368.492161 320.148355,370.746662 C327.649088,373.001163 335.36688,368.164194 337.563216,359.915935 L337.659166,359.533018 L357.085092,279.356841 L357.174216,278.970014 C359.002546,270.61142 354.517435,262.10752 347.015727,259.853671 Z M57.0157266,466.853671 C49.5149936,464.598519 41.7970063,469.434619 39.6008659,477.683963 L39.5047202,478.066881 L20.0787949,558.243057 L19.9896699,558.629884 C18.1613407,566.988479 22.6464518,575.492161 30.1483549,577.746662 C37.6490879,580.001163 45.3668801,575.164194 47.5632155,566.915935 L47.6591662,566.533018 L67.0850915,486.356841 L67.1742165,485.970014 C69.0025458,477.61142 64.5174347,469.10752 57.0157266,466.853671 Z M401.252545,399.793384 C392.497054,397.783844 383.491212,402.093042 380.928518,409.443936 L380.814722,409.78515 L365.581944,457.788822 C375.450362,461.933704 384.868148,466.813075 393.726055,472.370227 L395.191752,473.3 L413.003155,417.172236 L413.105572,416.827539 C415.240391,409.379293 410.008035,401.801569 401.252545,399.793384 Z M460.077073,372.142799 L449.12269,393.938692 L449.025091,394.272425 C447.03705,401.508327 451.91698,408.869637 460.077073,410.820707 C468.237166,412.772906 476.63489,408.586481 479.023934,401.445529 L479.127898,401.113863 L480.287988,398.515668 C471.362955,386.979409 480.287988,398.515668 471.362955,386.979409 L460.077073,372.142799 Z" id="Shape" fill="#FFFFFF" fill-rule="nonzero"></path>
            <path d="M180.637861,800.768046 C183.041203,792.658686 191.491976,787.905807 199.703824,790.119974 C207.917807,792.334141 212.826553,800.69545 210.825903,808.913703 L210.727685,809.293763 L195.506088,865.700574 L193.379463,864.916968 C184.214477,861.494297 175.231621,857.60616 166.465698,853.263233 L180.53153,801.143835 L180.637861,800.768046 Z" id="Path" fill="#FFFFFF" fill-rule="nonzero"></path>
            <path d="M284.487081,457.270142 C191.353283,457.270142 118.906679,515.901369 118.906679,588.815147 C118.906679,657.678515 185.567624,701.647985 288.906874,699.446629 C297.695217,699.258734 300.236064,705.162468 303.095051,713.118096 C305.956173,721.073724 313.64277,763.001975 319.768561,795.072166 C325.251667,823.7752 330.822314,852.582857 335.075565,881.501543 C402.557481,872.58082 464.955567,839.248747 510.675873,788.974132 L461.91082,607.115653 C449.755321,563.195292 435.547928,522.725359 397.954063,493.324125 C367.709439,469.672039 329.284995,457.270142 284.487081,457.270142 Z" id="Path" fill="#FFFFFF" fill-rule="nonzero"></path>
            <path d="M304.50426,509.927175 C315.560149,509.927175 324.52144,518.888466 324.52144,529.944355 C324.52144,541.000243 315.560149,549.961534 304.50426,549.961534 C293.448372,549.961534 284.487081,541.000243 284.487081,529.944355 C284.487081,518.888466 293.448372,509.927175 304.50426,509.927175 Z" id="Path" fill="#26053D" fill-rule="nonzero"></path>
        </g>
    </g>
</svg>
